HIERARCHY
ROOT reference
{
  OFFSET -65.3212 -1.93545 -120.338
  CHANNELS 6 Xposition Yposition Zposition Zrotation Xrotation Yrotation
  JOINT Hips
  {
    OFFSET 0 78.7191 0
    CHANNELS 3 Zrotation Xrotation Yrotation
    JOINT Chest
    {
      OFFSET 0 8.7983 -4.7612
      CHANNELS 3 Zrotation Xrotation Yrotation
      JOINT Chest2
      {
        OFFSET 0 8.0291 0.4195
        CHANNELS 3 Zrotation Xrotation Yrotation
        JOINT Chest3
        {
          OFFSET 0 9.9351 -2.2114
          CHANNELS 3 Zrotation Xrotation Yrotation
          JOINT Neck
          {
            OFFSET 0 22.3885 -0.4656
            CHANNELS 3 Zrotation Xrotation Yrotation
            JOINT Head
            {
              OFFSET -0.0001 12.643 3.4389
              CHANNELS 3 Zrotation Xrotation Yrotation
              End Site
              {
                OFFSET 0.0001 17.6655 0.5274
              }
            }
          }
          JOINT LeftCollar
          {
            OFFSET 2.2603 21.606 7.4023
            CHANNELS 3 Zrotation Xrotation Yrotation
            JOINT LeftShoulder
            {
              OFFSET 13.5163 -1.1332 -5.0146
              CHANNELS 3 Zrotation Xrotation Yrotation
              JOINT LeftElbow
              {
                OFFSET -0.0995 -28.05 -0.2431
                CHANNELS 3 Zrotation Xrotation Yrotation
                JOINT LeftWrist
                {
                  OFFSET 0.0679 -23.3996 -0.1402
                  CHANNELS 3 Zrotation Xrotation Yrotation
                  JOINT LeftFinger1
                  {
                    OFFSET 0.7932 -9.069 2.5189
                    CHANNELS 3 Zrotation Xrotation Yrotation
                    JOINT LeftFinger11
                    {
                      OFFSET -0.8272 -3.3923 0.5977
                      CHANNELS 3 Zrotation Xrotation Yrotation
                      JOINT LeftFinger12
                      {
                        OFFSET -0.5649 -2.3158 0.4082
                        CHANNELS 3 Zrotation Xrotation Yrotation
                        End Site
                        {
                          OFFSET -0.4919 -1.6479 0.2673
                        }
                      }
                    }
                  }
                  JOINT LeftFinger2
                  {
                    OFFSET 0.9159 -9.2044 0.2193
                    CHANNELS 3 Zrotation Xrotation Yrotation
                    JOINT LeftFinger21
                    {
                      OFFSET 0.0117 -4.1944 -0.0248
                      CHANNELS 3 Zrotation Xrotation Yrotation
                      JOINT LeftFinger22
                      {
                        OFFSET 0.0071 -2.3249 -0.0142
                        CHANNELS 3 Zrotation Xrotation Yrotation
                        End Site
                        {
                          OFFSET -0.1475 -2.0882 0.0028
                        }
                      }
                    }
                  }
                  JOINT LeftFinger3
                  {
                    OFFSET 0.6113 -8.7231 -2.0637
                    CHANNELS 3 Zrotation Xrotation Yrotation
                    JOINT LeftFinger31
                    {
                      OFFSET -0.1927 -3.8059 -0.2383
                      CHANNELS 3 Zrotation Xrotation Yrotation
                      JOINT LeftFinger32
                      {
                        OFFSET -0.1091 -2.1688 -0.1362
                        CHANNELS 3 Zrotation Xrotation Yrotation
                        End Site
                        {
                          OFFSET -0.2358 -1.9176 -0.0906
                        }
                      }
                    }
                  }
                  JOINT LeftFinger4
                  {
                    OFFSET -0.6151 -8.0947 -3.5641
                    CHANNELS 3 Zrotation Xrotation Yrotation
                    JOINT LeftFinger41
                    {
                      OFFSET -0.4882 -2.341 -0.6462
                      CHANNELS 3 Zrotation Xrotation Yrotation
                      JOINT LeftFinger42
                      {
                        OFFSET -0.3575 -1.7167 -0.4742
                        CHANNELS 3 Zrotation Xrotation Yrotation
                        End Site
                        {
                          OFFSET -0.4187 -1.5237 -0.3496
                        }
                      }
                    }
                  }
                  JOINT LeftFinger0
                  {
                    OFFSET -1.42 -1.8761 1.4223
                    CHANNELS 3 Zrotation Xrotation Yrotation
                    JOINT LeftFinger01
                    {
                      OFFSET -1.1471 -3.4929 2.6334
                      CHANNELS 3 Zrotation Xrotation Yrotation
                      JOINT LeftFinger02
                      {
                        OFFSET -0.823 -2.3 1.6571
                        CHANNELS 3 Zrotation Xrotation Yrotation
                        End Site
                        {
                          OFFSET -0.5822 -1.6914 1.1582
                        }
                      }
                    }
                  }
                }
              }
            }
          }
          JOINT RightCollar
          {
            OFFSET -2.2603 21.606 7.4023
            CHANNELS 3 Zrotation Xrotation Yrotation
            JOINT RightShoulder
            {
              OFFSET -13.5187 -1.1334 -5.0155
              CHANNELS 3 Zrotation Xrotation Yrotation
              JOINT RightElbow
              {
                OFFSET 0.0994 -28.0499 -0.2431
                CHANNELS 3 Zrotation Xrotation Yrotation
                JOINT RightWrist
                {
                  OFFSET -0.0679 -23.3996 -0.1402
                  CHANNELS 3 Zrotation Xrotation Yrotation
                  JOINT RightFinger1
                  {
                    OFFSET -0.7932 -9.0691 2.5189
                    CHANNELS 3 Zrotation Xrotation Yrotation
                    JOINT RightFinger11
                    {
                      OFFSET 0.8272 -3.3923 0.5977
                      CHANNELS 3 Zrotation Xrotation Yrotation
                      JOINT RightFinger12
                      {
                        OFFSET 0.565 -2.3158 0.4082
                        CHANNELS 3 Zrotation Xrotation Yrotation
                        End Site
                        {
                          OFFSET 0.4919 -1.6479 0.2673
                        }
                      }
                    }
                  }
                  JOINT RightFinger2
                  {
                    OFFSET -0.916 -9.2044 0.2193
                    CHANNELS 3 Zrotation Xrotation Yrotation
                    JOINT RightFinger21
                    {
                      OFFSET -0.0117 -4.1944 -0.0248
                      CHANNELS 3 Zrotation Xrotation Yrotation
                      JOINT RightFinger22
                      {
                        OFFSET -0.0071 -2.3249 -0.0142
                        CHANNELS 3 Zrotation Xrotation Yrotation
                        End Site
                        {
                          OFFSET 0.1475 -2.0882 0.0028
                        }
                      }
                    }
                  }
                  JOINT RightFinger3
                  {
                    OFFSET -0.6113 -8.7231 -2.0637
                    CHANNELS 3 Zrotation Xrotation Yrotation
                    JOINT RightFinger31
                    {
                      OFFSET 0.1927 -3.8059 -0.2383
                      CHANNELS 3 Zrotation Xrotation Yrotation
                      JOINT RightFinger32
                      {
                        OFFSET 0.1091 -2.1688 -0.1362
                        CHANNELS 3 Zrotation Xrotation Yrotation
                        End Site
                        {
                          OFFSET 0.2358 -1.9176 -0.0906
                        }
                      }
                    }
                  }
                  JOINT RightFinger4
                  {
                    OFFSET 0.6151 -8.0947 -3.564
                    CHANNELS 3 Zrotation Xrotation Yrotation
                    JOINT RightFinger41
                    {
                      OFFSET 0.4882 -2.341 -0.6462
                      CHANNELS 3 Zrotation Xrotation Yrotation
                      JOINT RightFinger42
                      {
                        OFFSET 0.3574 -1.7166 -0.4742
                        CHANNELS 3 Zrotation Xrotation Yrotation
                        End Site
                        {
                          OFFSET 0.4187 -1.5237 -0.3496
                        }
                      }
                    }
                  }
                  JOINT RightFinger0
                  {
                    OFFSET 1.4199 -1.8761 1.4221
                    CHANNELS 3 Zrotation Xrotation Yrotation
                    JOINT RightFinger01
                    {
                      OFFSET 1.1472 -3.4929 2.6336
                      CHANNELS 3 Zrotation Xrotation Yrotation
                      JOINT RightFinger02
                      {
                        OFFSET 0.8229 -2.3 1.6571
                        CHANNELS 3 Zrotation Xrotation Yrotation
                        End Site
                        {
                          OFFSET 0.5822 -1.6914 1.1582
                        }
                      }
                    }
                  }
                }
              }
            }
          }
        }
      }
    }
    JOINT RightHip
    {
      OFFSET -9.412 3.9771 -0.7758
      CHANNELS 3 Zrotation Xrotation Yrotation
      JOINT RightKnee
      {
        OFFSET -0.7531 -40.938 0
        CHANNELS 3 Zrotation Xrotation Yrotation
        JOINT RightAnkle
        {
          OFFSET 0 -40.1986 0
          CHANNELS 3 Zrotation Xrotation Yrotation
          JOINT RightToe
          {
            OFFSET 0 -4.4182 9.239
            CHANNELS 3 Zrotation Xrotation Yrotation
            End Site
            {
              OFFSET 0 0 6.1981
            }
          }
        }
      }
    }
    JOINT LeftHip
    {
      OFFSET 9.4119 3.9773 -0.7758
      CHANNELS 3 Zrotation Xrotation Yrotation
      JOINT LeftKnee
      {
        OFFSET 0.7532 -40.9383 0
        CHANNELS 3 Zrotation Xrotation Yrotation
        JOINT LeftAnkle
        {
          OFFSET 0 -40.1986 0
          CHANNELS 3 Zrotation Xrotation Yrotation
          JOINT LeftToe
          {
            OFFSET 0 -4.4182 9.239
            CHANNELS 3 Zrotation Xrotation Yrotation
            End Site
            {
              OFFSET 0 0 6.1981
            }
          }
        }
      }
    }
  }
}
MOTION
Frames:	6
Frame Time:	0.0333333
8.65404 0.0438995 0.977553 0 0 -0 -3.57168 -3.45558 -8.2922 2.41266 0.295667 -2.28393 4.83524 0.494705 -4.57837 4.83524 0.494706 -4.57836 2.17009 -0.0876968 5.28929 6.05967 2.94767 10.5489 11.1633 -6.01072 -14.737 3.01925 6.8862 14.5079 -82.8999 -64.3365 -47.1538 -22.3943 8.64015 71.542 17.5096 -8.01475 0.944245 -0.437093 -4.86166 -2.30095 13.3597 -8.06636 1.65993 16.7017 -9.60636 2.00803 -0.822485 -4.78461 0.615218 14.0613 -8.41495 2.41277 14.2952 -9.3767 3.23483 -0.982388 -6.53741 1.59439 13.7679 -8.97877 2.88122 13.7109 -9.18585 3.80037 -0.115125 -6.56026 4.67203 13.7576 -8.75826 3.32519 1.17003 2.41141 -0.674701 -1.71971 -0.46282 0.277574 -1.21489 -1.62062 0.319325 8.50874 -0.675626 -0.840224 -13.911 19.8072 -34.0724 -170.154 -81.9359 150.305 -34.763 -16.0486 -47.4665 58.9999 15.8977 -10.064 47.5674 13.8585 -6.92862 65.0966 16.7088 -11.8485 49.1218 17.4781 -14.2566 38.1313 12.1697 -3.28594 55.3191 16.2228 -7.14502 44.4978 23.5944 -19.2536 33.9146 12.7297 -1.93836 50.8594 17.8676 -5.5366 45.291 29.9617 -21.8592 33.8738 12.6413 -0.910672 50.7258 17.956 -4.02132 2.37249 -5.714 -1.65894 2.00862 -0.232248 -2.08436 11.9389 -31.8147 -6.59331 1.98665 3.58577 6.37451 1.1266 0.284257 4.52326 3.99146 -0.209252 -0.584758 0.0577171 1.07283 -0.0606324 6.26862 3.65624 0.445715 1.01573 7.30116 4.4776 -1.22625 -6.09018 0.737976 -0.262545 1.86044 0.00449909 
8.64634 0.0488358 0.976917 0 0 -0 -3.69571 -3.44505 -8.35548 2.43685 0.327317 -2.2749 4.88485 0.557381 -4.56175 4.88486 0.557381 -4.56176 2.18163 -0.155296 5.30299 6.05813 2.8867 10.5683 11.1633 -6.01073 -14.737 3.054 7.05213 14.5251 -82.6017 -63.6389 -47.0199 -22.4262 8.58328 71.683 16.5228 -7.19214 0.549076 -0.427792 -4.78321 -2.2528 12.6753 -7.67047 1.53048 15.9282 -9.15963 1.68991 -0.788939 -4.58478 0.611273 13.4569 -8.07402 2.26865 13.7224 -9.04085 3.09383 -0.941153 -6.2525 1.56257 13.2188 -8.6416 2.72138 13.1237 -8.89633 3.6776 -0.11343 -6.30683 4.53499 13.189 -8.41707 3.13242 1.49762 2.95909 -0.816851 -1.77643 -0.446836 0.28189 -1.14506 -1.52698 0.301828 8.5087 -0.675593 -0.840048 -13.6568 20.12 -34.2412 -172.541 -82.0943 148.057 -34.7875 -15.9597 -47.5999 59.3731 15.9531 -10.1742 47.9055 13.9277 -7.01489 65.5079 16.757 -11.973 49.4738 17.5232 -14.349 38.4392 12.253 -3.34404 55.6992 16.2977 -7.24305 44.8526 23.6263 -19.3653 34.2079 12.8288 -1.98731 51.2264 17.9643 -5.63043 45.6678 29.9846 -22.0135 34.1658 12.7423 -0.950776 51.0907 18.0581 -4.10537 2.32661 -5.60689 -1.62984 1.9951 -0.236796 -2.0726 11.7803 -31.3692 -6.54262 2.10746 3.60775 6.37042 1.11663 0.223906 4.56755 4.00352 -0.159913 -0.572339 0.0576987 1.07285 -0.0606126 6.38087 3.5633 0.421066 1.02622 7.53569 4.52236 -1.24362 -6.21606 0.770711 -0.262548 1.86045 0.00451068 
8.63649 0.0493317 0.976122 0 0 -0 -3.82264 -3.43546 -8.42712 2.46231 0.360193 -2.26604 4.93704 0.622439 -4.54553 4.93705 0.622442 -4.54554 2.19257 -0.224685 5.32114 6.05309 2.82567 10.5927 11.1632 -6.01072 -14.737 3.08824 7.21875 14.5369 -82.2229 -62.8036 -46.8464 -22.4651 8.51336 71.856 15.4965 -6.32659 0.147455 -0.417916 -4.69735 -2.20066 11.9925 -7.27306 1.40592 15.1212 -8.6893 1.36432 -0.754052 -4.37566 0.605154 12.8539 -7.7316 2.12828 13.1245 -8.68772 2.95056 -0.89837 -5.95467 1.52579 12.6124 -8.27137 2.56125 12.5105 -8.59157 3.55376 -0.112166 -6.03806 4.38656 12.5852 -8.05803 2.95013 1.83912 3.53263 -0.969073 -1.83315 -0.430904 0.286057 -1.0752 -1.43337 0.284237 8.50867 -0.67559 -0.840018 -13.378 20.4578 -34.4345 -175.276 -82.2745 145.486 -34.8172 -15.8507 -47.7633 59.6996 16.0009 -10.271 48.2013 13.9879 -7.09072 65.8504 16.7964 -12.0769 49.7818 17.5622 -14.4303 38.7087 12.3256 -3.39523 56.0159 16.3595 -7.3251 45.163 23.653 -19.462 34.4646 12.9152 -2.03055 51.5323 18.0444 -5.70911 45.9975 30.0041 -22.1489 34.4212 12.8304 -0.986285 51.3949 18.1426 -4.17586 2.27436 -5.48532 -1.59646 1.9816 -0.241364 -2.06081 11.6003 -30.8631 -6.48355 2.22353 3.73995 6.36568 1.10056 -0.0220575 4.61973 4.02261 -0.0335023 -0.562287 0.0576665 1.07286 -0.0605685 6.4952 3.45516 0.394549 1.03672 7.80804 4.56667 -1.26438 -6.36216 0.807201 -0.262575 1.86045 0.00454184 
8.62616 0.0499191 0.975335 0 0 -0 -3.95849 -3.42632 -8.50428 2.48672 0.393573 -2.25702 4.98715 0.688557 -4.52911 4.98716 0.688559 -4.52912 2.21117 -0.292866 5.34129 6.05367 2.76617 10.6192 11.1633 -6.01073 -14.737 3.13463 7.39467 14.5494 -81.7709 -61.8401 -46.6399 -22.5101 8.43197 72.0569 14.4401 -5.42522 -0.255848 -0.407834 -4.61137 -2.14878 11.2706 -6.85042 1.27926 14.2877 -8.19918 1.03494 -0.717995 -4.15908 0.596632 12.2014 -7.35865 1.9803 12.5065 -8.32028 2.80674 -0.854296 -5.64663 1.48394 12.0076 -7.89948 2.40523 11.8765 -8.27416 3.43031 -0.110553 -5.77078 4.23551 11.9534 -7.67915 2.76312 2.19093 4.12736 -1.12858 -1.8953 -0.413519 0.29045 -1.00531 -1.33975 0.266529 8.50869 -0.675589 -0.840038 -13.0634 20.8193 -34.6479 -178.405 -82.4743 142.542 -34.8513 -15.7238 -47.9532 59.97 16.04 -10.3515 48.4463 14.0373 -7.15374 66.1341 16.8286 -12.1631 50.0368 17.5942 -14.498 38.9319 12.3855 -3.43789 56.2782 16.4104 -7.39331 45.4199 23.6738 -19.5405 34.6772 12.9866 -2.06664 51.7857 18.1104 -5.77457 46.2705 30.0199 -22.2613 34.6328 12.9032 -1.016 51.6468 18.2123 -4.23465 2.21544 -5.34823 -1.55906 1.96535 -0.246978 -2.04653 11.3977 -30.2924 -6.4151 2.3617 3.72749 6.36156 1.08704 -0.000685028 4.67347 4.0325 -0.0262468 -0.544568 0.057611 1.07287 -0.0604819 6.61747 3.3369 0.366217 1.04871 8.10869 4.61699 -1.28795 -6.52232 0.847248 -0.262594 1.86045 0.00457769 
8.61544 0.0505753 0.974548 0 0 -0 -4.10106 -3.41733 -8.58435 2.51019 0.42723 -2.24778 5.03537 0.755301 -4.51231 5.03538 0.7553 -4.51232 2.23595 -0.360079 5.36213 6.05893 2.70765 10.6467 11.1633 -6.01074 -14.7371 3.18945 7.57819 14.5636 -81.2507 -60.7686 -46.4033 -22.5602 8.34048 72.2821 13.3627 -4.49541 -0.656437 -0.398106 -4.52512 -2.09737 10.5249 -6.41126 1.15392 13.435 -7.69321 0.705295 -0.680772 -3.93499 0.585519 11.5505 -6.98406 1.83672 11.8684 -7.93825 2.6628 -0.809517 -5.33098 1.43706 11.3808 -7.50882 2.24111 11.2217 -7.94377 3.30804 -0.109048 -5.49314 4.07509 11.3234 -7.29826 2.58048 2.55051 4.738 -1.29605 -1.95747 -0.396191 0.294682 -0.935399 -1.24618 0.248687 8.50876 -0.675585 -0.840112 -12.7212 21.1964 -34.8765 178.008 -82.6899 139.158 -34.8891 -15.5814 -48.1659 60.1748 16.0694 -10.4125 48.6318 14.0746 -7.2016 66.349 16.8527 -12.2285 50.23 17.6182 -14.5494 39.1008 12.4307 -3.47036 56.4769 16.4487 -7.44513 45.6144 23.688 -19.5976 34.8382 13.0405 -2.09417 51.9776 18.1602 -5.82439 46.4773 30.0317 -22.3467 34.7931 12.9582 -1.03868 51.8034 18.2606 -4.26116 2.14948 -5.19469 -1.51742 1.94705 -0.253126 -2.03041 11.1712 -29.6534 -6.33612 2.51447 3.69426 6.35889 1.06584 0.0899534 4.73074 4.04099 -0.0652791 -0.526386 0.0577296 1.07284 -0.0606604 6.74539 3.22598 0.335986 1.06128 8.3984 4.66952 -1.31139 -6.67905 0.887279 -0.262665 1.86043 0.00466463 
8.60446 0.0512848 0.973746 0 0 -0 -4.24885 -3.40819 -8.66464 2.53266 0.460956 -2.23832 5.08158 0.822222 -4.49501 5.08159 0.822223 -4.49503 2.26601 -0.426355 5.3824 6.06871 2.64971 10.6736 11.1633 -6.01077 -14.7372 3.25007 7.7685 14.5808 -80.6672 -59.6087 -46.1394 -22.6145 8.24045 72.5277 12.2674 -3.54178 -1.05457 -0.387715 -4.43463 -2.04383 9.78077 -5.97052 1.03443 12.5655 -7.17403 0.377318 -0.643596 -3.71104 0.572061 10.901 -6.60788 1.69757 11.2318 -7.55464 2.52328 -0.763656 -5.00867 1.38498 10.7433 -7.10869 2.07837 10.568 -7.61202 3.18968 -0.1073 -5.21176 3.90867 10.6717 -6.90113 2.39567 2.91318 5.36512 -1.47007 -2.01965 -0.37888 0.298705 -0.865458 -1.15261 0.230756 8.50874 -0.675599 -0.840081 -12.3587 21.582 -35.115 173.884 -82.9156 135.255 -34.9263 -15.4328 -48.3983 60.3046 16.0879 -10.4513 48.7494 14.0982 -7.23201 66.4852 16.8679 -12.27 50.3524 17.6333 -14.582 39.208 12.4594 -3.49099 56.6029 16.4729 -7.47804 45.7375 23.6948 -19.63 34.9403 13.0747 -2.11171 52.0994 18.1916 -5.85604 46.6084 30.0391 -22.4008 34.8947 12.9931 -1.05314 51.9587 18.2982 -4.30779 2.07595 -5.02391 -1.47047 1.92668 -0.260096 -2.01237 10.9195 -28.9423 -6.24538 2.65816 3.74305 6.35722 1.05244 -0.00138172 4.78497 4.05472 -0.00455012 -0.511594 0.0577271 1.07282 -0.0606564 6.87885 3.10548 0.305351 1.07395 8.70983 4.72196 -1.3367 -6.84489 0.927799 -0.262538 1.86045 0.00449291 
